# xmcd
#
# Track frame offsets: 
#        150
#        22030
#        39668
#        49435
#        62909
#        75700
#        91637
#        107362
#        126931
#        153362
#        174003
#        187657
#
# Disc length: 2709 seconds
#
# Revision: 0
# Processed by: cddbd v1.5.2PL0 Copyright (c) Steve Scherf et al.
# Submitted via: ExactAudioCopyFreeDBPlugin 1.0
#
DISCID=8b0a930c
DTITLE=Raoul And The Big Time - Hollywood Blvd
DYEAR=2014
DGENRE=Blues
TTITLE0=Nothin'Gonna Take Me Down
TTITLE1=Hollywood Blvd
TTITLE2=Someday
TTITLE3=High Roller
TTITLE4=Amphetamine
TTITLE5=Get Out Of My Life Woman
TTITLE6=Left Coast Fred
TTITLE7=Why Am I Treated So Bad
TTITLE8=Tired
TTITLE9=Spoken For
TTITLE10=Curtis Charm
TTITLE11=In The Shadow Of The Pine
EXTD=
EXTT0=
EXTT1=
EXTT2=
EXTT3=
EXTT4=
EXTT5=
EXTT6=
EXTT7=
EXTT8=
EXTT9=
EXTT10=
EXTT11=
PLAYORDER=
